<svg width="134" height="62" viewBox="0 0 134 62" fill="none" xmlns="http://www.w3.org/2000/svg">
<path d="M19.1719 0.96875V5.04688H12.2812V24H7.4375V5.04688H0.515625V0.96875H19.1719ZM19.9062 8.8125C21.0833 7.3125 23.1042 6.5625 25.9688 6.5625C27.8333 6.5625 29.4896 6.93229 30.9375 7.67188C32.3854 8.41146 33.1094 9.80729 33.1094 11.8594V19.6719C33.1094 20.2135 33.1198 20.8698 33.1406 21.6406C33.1719 22.224 33.2604 22.6198 33.4062 22.8281C33.5521 23.0365 33.7708 23.2083 34.0625 23.3438V24H29.2188C29.0833 23.6562 28.9896 23.3333 28.9375 23.0312C28.8854 22.7292 28.8438 22.3854 28.8125 22C28.1979 22.6667 27.4896 23.2344 26.6875 23.7031C25.7292 24.2552 24.6458 24.5312 23.4375 24.5312C21.8958 24.5312 20.6198 24.0938 19.6094 23.2188C18.6094 22.3333 18.1094 21.0833 18.1094 19.4688C18.1094 17.375 18.9167 15.8594 20.5312 14.9219C21.4167 14.4115 22.7188 14.0469 24.4375 13.8281L25.9531 13.6406C26.776 13.5365 27.3646 13.4062 27.7188 13.25C28.3542 12.9792 28.6719 12.5573 28.6719 11.9844C28.6719 11.2865 28.4271 10.8073 27.9375 10.5469C27.4583 10.276 26.75 10.1406 25.8125 10.1406C24.7604 10.1406 24.0156 10.401 23.5781 10.9219C23.2656 11.3073 23.0573 11.8281 22.9531 12.4844H18.6562C18.75 10.9948 19.1667 9.77083 19.9062 8.8125ZM23.2188 20.7812C23.6354 21.125 24.1458 21.2969 24.75 21.2969C25.7083 21.2969 26.5885 21.0156 27.3906 20.4531C28.2031 19.8906 28.625 18.8646 28.6562 17.375V15.7188C28.375 15.8958 28.0885 16.0417 27.7969 16.1562C27.5156 16.2604 27.125 16.3594 26.625 16.4531L25.625 16.6406C24.6875 16.8073 24.0156 17.0104 23.6094 17.25C22.9219 17.6562 22.5781 18.2865 22.5781 19.1406C22.5781 19.901 22.7917 20.4479 23.2188 20.7812ZM48.8125 7.75C50.1458 8.60417 50.9115 10.0729 51.1094 12.1562H46.6562C46.5938 11.5833 46.4323 11.1302 46.1719 10.7969C45.6823 10.1927 44.849 9.89062 43.6719 9.89062C42.7031 9.89062 42.0104 10.0417 41.5938 10.3438C41.1875 10.6458 40.9844 11 40.9844 11.4062C40.9844 11.9167 41.2031 12.2865 41.6406 12.5156C42.0781 12.7552 43.625 13.1667 46.2812 13.75C48.0521 14.1667 49.3802 14.7969 50.2656 15.6406C51.1406 16.4948 51.5781 17.5625 51.5781 18.8438C51.5781 20.5312 50.9479 21.9115 49.6875 22.9844C48.4375 24.0469 46.5 24.5781 43.875 24.5781C41.1979 24.5781 39.2188 24.0156 37.9375 22.8906C36.6667 21.7552 36.0312 20.3125 36.0312 18.5625H40.5469C40.6406 19.3542 40.8438 19.9167 41.1562 20.25C41.7083 20.8438 42.7292 21.1406 44.2188 21.1406C45.0938 21.1406 45.7865 21.0104 46.2969 20.75C46.8177 20.4896 47.0781 20.099 47.0781 19.5781C47.0781 19.0781 46.8698 18.6979 46.4531 18.4375C46.0365 18.1771 44.4896 17.7292 41.8125 17.0938C39.8854 16.6146 38.526 16.0156 37.7344 15.2969C36.9427 14.5885 36.5469 13.5677 36.5469 12.2344C36.5469 10.6615 37.1615 9.3125 38.3906 8.1875C39.6302 7.05208 41.3698 6.48438 43.6094 6.48438C45.7344 6.48438 47.4688 6.90625 48.8125 7.75ZM70.5156 24H65.1406L61.0625 16.7188L59.2188 18.6406V24H54.8438V1.04688H59.2188V13.4531L64.7656 7.04688H70.2812L64.3281 13.5625L70.5156 24ZM128.344 56.3438H133.078V61H128.344V56.3438Z" fill="white"/>
<path d="M12.9531 61H2.51562V37.9688H13.7031C16.526 38.0104 18.526 38.8281 19.7031 40.4219C20.4115 41.401 20.7656 42.5729 20.7656 43.9375C20.7656 45.3438 20.4115 46.474 19.7031 47.3281C19.3073 47.8073 18.724 48.2448 17.9531 48.6406C19.1302 49.0677 20.0156 49.7448 20.6094 50.6719C21.2135 51.599 21.5156 52.724 21.5156 54.0469C21.5156 55.4115 21.1719 56.6354 20.4844 57.7188C20.0469 58.4375 19.5 59.0417 18.8438 59.5312C18.1042 60.0938 17.2292 60.4792 16.2188 60.6875C15.2188 60.8958 14.1302 61 12.9531 61ZM12.8438 50.8594H7.10938V57H12.7656C13.776 57 14.5625 56.8646 15.125 56.5938C16.1458 56.0938 16.6562 55.1354 16.6562 53.7188C16.6562 52.5208 16.1615 51.6979 15.1719 51.25C14.6198 51 13.8438 50.8698 12.8438 50.8594ZM15.2344 46.4688C15.8594 46.0938 16.1719 45.4219 16.1719 44.4531C16.1719 43.3802 15.7552 42.6719 14.9219 42.3281C14.2031 42.0885 13.2865 41.9688 12.1719 41.9688H7.10938V47.0469H12.7656C13.776 47.0469 14.599 46.8542 15.2344 46.4688Z" fill="#7193ED"/>
<path d="M36.125 58.5938C36.0833 58.6458 35.9792 58.8021 35.8125 59.0625C35.6458 59.3229 35.4479 59.5521 35.2188 59.75C34.5208 60.375 33.8438 60.8021 33.1875 61.0312C32.5417 61.2604 31.7812 61.375 30.9062 61.375C28.3854 61.375 26.6875 60.4688 25.8125 58.6562C25.3229 57.6562 25.0781 56.1823 25.0781 54.2344V43.9688H29.6406V54.2344C29.6406 55.2031 29.7552 55.9323 29.9844 56.4219C30.3906 57.2865 31.1875 57.7188 32.375 57.7188C33.8958 57.7188 34.9375 57.1042 35.5 55.875C35.7917 55.2083 35.9375 54.3281 35.9375 53.2344V43.9688H40.4531V61H36.125V58.5938Z" fill="#BF9FF1"/>
<path d="M60.2656 38V61H55.9375V58.6406C55.3021 59.651 54.5781 60.3854 53.7656 60.8438C52.9531 61.3021 51.9427 61.5312 50.7344 61.5312C48.7448 61.5312 47.0677 60.7292 45.7031 59.125C44.349 57.5104 43.6719 55.4427 43.6719 52.9219C43.6719 50.0156 44.3385 47.7292 45.6719 46.0625C47.0156 44.3958 48.8073 43.5625 51.0469 43.5625C52.0781 43.5625 52.9948 43.7917 53.7969 44.25C54.599 44.6979 55.25 45.3229 55.75 46.125V38H60.2656ZM48.2656 52.5938C48.2656 54.1667 48.5781 55.4219 49.2031 56.3594C49.8177 57.3073 50.7552 57.7812 52.0156 57.7812C53.276 57.7812 54.2344 57.3125 54.8906 56.375C55.5469 55.4375 55.875 54.224 55.875 52.7344C55.875 50.651 55.349 49.1615 54.2969 48.2656C53.651 47.724 52.901 47.4531 52.0469 47.4531C50.7448 47.4531 49.7865 47.9479 49.1719 48.9375C48.5677 49.9167 48.2656 51.1354 48.2656 52.5938Z" fill="#EB546F"/>
<path d="M79.8281 38V61H75.5V58.6406C74.8646 59.651 74.1406 60.3854 73.3281 60.8438C72.5156 61.3021 71.5052 61.5312 70.2969 61.5312C68.3073 61.5312 66.6302 60.7292 65.2656 59.125C63.9115 57.5104 63.2344 55.4427 63.2344 52.9219C63.2344 50.0156 63.901 47.7292 65.2344 46.0625C66.5781 44.3958 68.3698 43.5625 70.6094 43.5625C71.6406 43.5625 72.5573 43.7917 73.3594 44.25C74.1615 44.6979 74.8125 45.3229 75.3125 46.125V38H79.8281ZM67.8281 52.5938C67.8281 54.1667 68.1406 55.4219 68.7656 56.3594C69.3802 57.3073 70.3177 57.7812 71.5781 57.7812C72.8385 57.7812 73.7969 57.3125 74.4531 56.375C75.1094 55.4375 75.4375 54.224 75.4375 52.7344C75.4375 50.651 74.9115 49.1615 73.8594 48.2656C73.2135 47.724 72.4635 47.4531 71.6094 47.4531C70.3073 47.4531 69.349 47.9479 68.7344 48.9375C68.1302 49.9167 67.8281 51.1354 67.8281 52.5938Z" fill="#E15E42"/>
<path d="M88.4688 43.9688V61H83.9531V43.9688H88.4688ZM88.4688 37.8281V41.9375H83.9531V37.8281H88.4688Z" fill="#F78D2C"/>
<path d="M107.375 56C107.26 57.0104 106.734 58.0365 105.797 59.0781C104.339 60.7344 102.297 61.5625 99.6719 61.5625C97.5052 61.5625 95.5938 60.8646 93.9375 59.4688C92.2812 58.0729 91.4531 55.8021 91.4531 52.6562C91.4531 49.7083 92.1979 47.4479 93.6875 45.875C95.1875 44.3021 97.1302 43.5156 99.5156 43.5156C100.932 43.5156 102.208 43.7812 103.344 44.3125C104.479 44.8438 105.417 45.6823 106.156 46.8281C106.823 47.8385 107.255 49.0104 107.453 50.3438C107.568 51.125 107.615 52.25 107.594 53.7188H95.9375C96 55.4271 96.5365 56.625 97.5469 57.3125C98.1615 57.7396 98.901 57.9531 99.7656 57.9531C100.682 57.9531 101.427 57.6927 102 57.1719C102.312 56.8906 102.589 56.5 102.828 56H107.375ZM102.969 50.7812C102.896 49.6042 102.536 48.7135 101.891 48.1094C101.255 47.4948 100.464 47.1875 99.5156 47.1875C98.4844 47.1875 97.6823 47.5104 97.1094 48.1562C96.5469 48.8021 96.1927 49.6771 96.0469 50.7812H102.969Z" fill="#FFC700"/>
<path d="M122.344 44.75C123.677 45.6042 124.443 47.0729 124.641 49.1562H120.188C120.125 48.5833 119.964 48.1302 119.703 47.7969C119.214 47.1927 118.38 46.8906 117.203 46.8906C116.234 46.8906 115.542 47.0417 115.125 47.3438C114.719 47.6458 114.516 48 114.516 48.4062C114.516 48.9167 114.734 49.2865 115.172 49.5156C115.609 49.7552 117.156 50.1667 119.812 50.75C121.583 51.1667 122.911 51.7969 123.797 52.6406C124.672 53.4948 125.109 54.5625 125.109 55.8438C125.109 57.5312 124.479 58.9115 123.219 59.9844C121.969 61.0469 120.031 61.5781 117.406 61.5781C114.729 61.5781 112.75 61.0156 111.469 59.8906C110.198 58.7552 109.562 57.3125 109.562 55.5625H114.078C114.172 56.3542 114.375 56.9167 114.688 57.25C115.24 57.8438 116.26 58.1406 117.75 58.1406C118.625 58.1406 119.318 58.0104 119.828 57.75C120.349 57.4896 120.609 57.099 120.609 56.5781C120.609 56.0781 120.401 55.6979 119.984 55.4375C119.568 55.1771 118.021 54.7292 115.344 54.0938C113.417 53.6146 112.057 53.0156 111.266 52.2969C110.474 51.5885 110.078 50.5677 110.078 49.2344C110.078 47.6615 110.693 46.3125 111.922 45.1875C113.161 44.0521 114.901 43.4844 117.141 43.4844C119.266 43.4844 121 43.9062 122.344 44.75Z" fill="#15AD70"/>
</svg>
